<svg width="96" height="96" xmlns="http://www.w3.org/2000/svg" xmlns:xlink="http://www.w3.org/1999/xlink" xml:space="preserve" overflow="hidden"><g transform="translate(-592 -312)"><path d="M656.4 345.9C657.5 350.5 652.8 355 648.2 353.1 644.3 351.7 642.8 347.2 645.5 343.3 651.6 335.2 647.1 322.5 637 318.1 641.6 326.8 634.6 334.7 630.5 338.1 626.5 341.4 623.8 344.9 623 346.9 618.9 356.8 625 366.3 629.2 368.6 627.3 364.3 625.6 356.2 633 348.5 633 348.5 630.9 356.7 635.5 362.3 640.1 368 640.1 372.2 640.1 372.2 647.3 372.2 654.2 367.9 657.1 360.8 659.1 356.5 659.3 349.8 656.4 345.9" fill="#FFFFFF"/><path d="M670.4 391.4 614.1 368.4C611.8 367.6 609.5 368.5 608.6 370.6L607.4 373.4C606.5 375.4 607.5 377.8 609.6 378.6L625.4 385 609.8 391.4C607.7 392.2 606.7 394.6 607.6 396.6L608.8 399.4C609.7 401.4 612 402.4 614.1 401.6L640 391 665.9 401.6C668 402.4 670.3 401.5 671.2 399.4L672.4 396.6C673.2 394.6 672.3 392.2 670.4 391.4" fill="#FFFFFF"/><path d="M670.4 378.6C672.5 377.8 673.5 375.4 672.6 373.4L671.4 370.6C670.5 368.6 668.2 367.6 666.1 368.4L645.4 376.9 660 382.9 670.4 378.6Z" fill="#FFFFFF"/></g></svg>