<svg width="96" height="96" xmlns="http://www.w3.org/2000/svg" xmlns:xlink="http://www.w3.org/1999/xlink" xml:space="preserve" overflow="hidden"><g transform="translate(-141 -366)"><path d="M173.4 422.5 152.1 443.8C150.2 445.8 150.2 448.9 152.2 450.9 154.1 452.8 157.2 452.8 159.2 450.9L180.5 429.6 173.4 422.5Z" fill="#FFFFFF"/><path d="M221.4 381.6 221.4 381.6 221.4 381.6C214 374.1 202 374.1 194.6 381.6 189.6 386.6 180.8 407.7 176.1 419.5L183.6 427C195.4 422.3 216.5 413.4 221.5 408.5 228.8 401 228.9 389 221.4 381.6ZM197.4 384.4C200.2 381.6 204 380 208 380 209 380 209.9 380.1 210.9 380.3 206.9 381.8 203.2 384.1 200.2 387.2 196.9 390.5 190.6 399.7 184.8 408.5 189.4 398 194.4 387.4 197.4 384.4ZM203.1 390C207.6 385.5 212.4 383.4 215.7 383.4 216 383.4 216.4 383.4 216.7 383.5L186 414.2C192.1 404.7 199.6 393.5 203.1 390ZM219.5 386.3C220.1 389.5 218 395 213 400 209.5 403.4 198.3 410.9 188.8 417L219.5 386.3ZM218.6 405.6C215.6 408.6 205 413.6 194.4 418.1 203.2 412.4 212.4 406 215.7 402.7 218.8 399.7 221.2 396.1 222.6 392.1 223.7 397 222.1 402.1 218.6 405.6Z" fill="#FFFFFF"/></g></svg>