<svg width="96" height="96" xmlns="http://www.w3.org/2000/svg" xmlns:xlink="http://www.w3.org/1999/xlink" xml:space="preserve" overflow="hidden"><g transform="translate(-703 -138)"><path d="M733 153C733 156.866 729.866 160 726 160 722.134 160 719 156.866 719 153 719 149.134 722.134 146 726 146 729.866 146 733 149.134 733 153Z" fill="#FFFFFF"/><path d="M763 153C763 156.866 759.866 160 756 160 752.134 160 749 156.866 749 153 749 149.134 752.134 146 756 146 759.866 146 763 149.134 763 153Z" fill="#FFFFFF"/><path d="M788 194C788 196.761 785.761 199 783 199 780.239 199 778 196.761 778 194 778 191.239 780.239 189 783 189 785.761 189 788 191.239 788 194Z" fill="#FFFFFF"/><path d="M793.8 212.2 790.3 203.8C789.1 202.1 787.2 200.8 785.1 200.2 784.5 200.1 783.7 200 783 200L778 200 773.8 192.9C773.9 192.4 774 191.9 773.9 191.4L769.2 167.8C767.3 165.7 764.9 164.1 762.1 163.1 760.2 162.4 758.1 162 755.9 162 753.7 162 751.7 162.4 749.7 163.1 747 164.1 744.6 165.7 742.6 167.8L741 176.7 739.2 167.8C737.3 165.7 734.9 164.1 732.1 163.1 730.2 162.4 728.1 162 725.9 162 723.7 162 721.7 162.4 719.7 163.1 717 164.1 714.6 165.7 712.6 167.8L708.1 191.4C707.8 193 708.8 194.6 710.5 194.9 710.6 195 710.8 195 711 195 712.4 195 713.7 194 713.9 192.6L718 172.3 718 226 724 226 724 195 728 195 728 226 734 226 734 172.3 738.1 192.6C738.3 194 739.6 195 741 195 742.4 195 743.7 194 743.9 192.6L748 172.3 748 183.2 744.2 202.1 748 202.1 748 226 754 226 754 202 758 202 758 226 764 226 764 202.1 767.8 202.1 764 183.2 764 172.3 768.1 192.6C768.3 193.8 769.3 194.7 770.4 194.9L778 207.8 778 212.6 776 218 778 218 778 226 782 226 782 218 784 218 784 226 788 226 788 218 790 218 788 212.5 788 208.6 790.2 213.8C790.5 214.6 791.3 215 792 215 792.3 215 792.5 215 792.8 214.8 793.8 214.4 794.3 213.2 793.8 212.2Z" fill="#FFFFFF"/></g></svg>