<svg width="96" height="96" xmlns="http://www.w3.org/2000/svg" xmlns:xlink="http://www.w3.org/1999/xlink" xml:space="preserve" overflow="hidden"><g transform="translate(-352 -366)"><path d="M384 428C384 432.418 380.418 436 376 436 371.582 436 368 432.418 368 428 368 423.582 371.582 420 376 420 380.418 420 384 423.582 384 428Z" fill="#FFFFFF"/><path d="M432 428C432 432.418 428.418 436 424 436 419.582 436 416 432.418 416 428 416 423.582 419.582 420 424 420 428.418 420 432 423.582 432 428Z" fill="#FFFFFF"/><path d="M391 408 391 396 404.7 396C405.8 396 406.8 396.4 407.5 397.2L418.3 408 391 408ZM387 408 361.7 408 372.5 397.2C373.3 396.4 374.3 396 375.3 396L387 396 387 408ZM434 408 425.7 408C424.6 408 423.6 407.6 422.9 406.8L410.3 394.3C408.8 392.8 406.8 392 404.6 392L375.3 392C373.2 392 371.1 392.8 369.6 394.3L357.2 406.8C356.4 407.6 356 408.6 356 409.7L356 420C356 424.4 359.6 428 364 428L365 428C365 421.9 369.9 417 376 417 382.1 417 387 421.9 387 428L413 428C413 421.9 417.9 417 424 417 430.1 417 435 421.9 435 428L440 428C442.2 428 444 426.2 444 424L444 418C444 412.5 439.5 408 434 408Z" fill="#FFFFFF"/></g></svg>