<svg width="96" height="96" xmlns="http://www.w3.org/2000/svg" xmlns:xlink="http://www.w3.org/1999/xlink" xml:space="preserve" overflow="hidden"><g transform="translate(-352 -209)"><path d="M435.4 262.8C425.8 265.5 409.9 271.5 404.1 281.9 404 282 404 282.2 403.9 282.3L403.9 261.9C435.5 258.9 418.7 220 418.7 220 417.9 218.7 416 218.7 415.3 220L408.5 231.5 401.7 220C401.3 219.3 400.6 219 400 219 399.4 219 398.7 219.3 398.3 220L391.5 231.5 384.7 220C383.9 218.7 382 218.7 381.3 220 381.3 220 364.5 258.9 396 261.9L396 282.2C396 282.1 395.9 282.1 395.9 282 390.1 271.5 374.3 265.6 364.6 262.9 362.6 262.3 361.2 264.7 362.6 266.2 366.8 270.6 372 277.8 374 287.5 374 287.5 374 287.5 374 287.5 374.7 291.7 378.6 295 383 295L417 295C421.4 295 425.3 291.7 426 287.5 426 287.5 426 287.5 426 287.5 428 277.8 433.2 270.6 437.4 266.2 438.8 264.6 437.4 262.3 435.4 262.8Z" fill="#FFFFFF"/></g></svg>