<svg width="96" height="96" xmlns="http://www.w3.org/2000/svg" xmlns:xlink="http://www.w3.org/1999/xlink" xml:space="preserve" overflow="hidden"><g transform="translate(-592 -312)"><path d="M628 383.1 628 391 652 391 652 383.1C661.5 379.9 668 373 668 365L612 365C612 372.9 618.5 379.8 628 383.1Z" fill="#FFFFFF"/><path d="M672 355 659 355 659 351C660.1 351 661 350.1 661 349 661 347.9 660.1 347 659 347L655 347C653.9 347 653 347.9 653 349 653 350.1 653.9 351 655 351L655 355 643 355 643 340C643 337.2 644.8 335 647 335 648.7 335.1 650.2 336.3 650.7 338 651.1 339.2 652.3 340 653.5 340 654.5 340 655.4 339.5 656 338.7 656.6 337.9 656.7 336.9 656.4 336 655.1 331.9 651.4 329.1 647.1 329 641.6 329 637.1 333.9 637.1 340L637.1 355 625 355 625 351C626.1 351 627 350.1 627 349 627 347.9 626.1 347 625 347L621 347C619.9 347 619 347.9 619 349 619 350.1 619.9 351 621 351L621 355 608 355C606.9 355 606 355.9 606 357L606 359C606 360.1 606.9 361 608 361L672 361C673.1 361 674 360.1 674 359L674 357C674 355.9 673.1 355 672 355Z" fill="#FFFFFF"/></g></svg>