<svg width="96" height="96" xmlns="http://www.w3.org/2000/svg" xmlns:xlink="http://www.w3.org/1999/xlink" xml:space="preserve" overflow="hidden"><g transform="translate(-310 -154)"><path d="M336 197C336 200.314 333.314 203 330 203 326.686 203 324 200.314 324 197 324 193.686 326.686 191 330 191 333.314 191 336 193.686 336 197Z" fill="#FFFFFF"/><path d="M337 203 349 203 349 193 347 193C341.5 193 337 197.5 337 203Z" fill="#FFFFFF"/><path d="M398 193 352 193 352 217C352 219.2 353.8 221 356 221L396 221 396 226 402 226 402 197C402 194.8 400.2 193 398 193Z" fill="#FFFFFF"/><path d="M320 181C320 179.3 318.7 178 317 178 315.3 178 314 179.3 314 181L314 226 320 226 320 216 349 216 349 206 320 206 320 181Z" fill="#FFFFFF"/></g></svg>