<svg width="96" height="96" xmlns="http://www.w3.org/2000/svg" xmlns:xlink="http://www.w3.org/1999/xlink" xml:space="preserve" overflow="hidden"><g transform="translate(-544 -209)"><path d="M622 226C622 229.866 618.866 233 615 233 611.134 233 608 229.866 608 226 608 222.134 611.134 219 615 219 618.866 219 622 222.134 622 226Z" fill="#FFFFFF"/><path d="M636.2 289C635.6 288.1 634.4 287.7 633.5 288.3L628.9 291 623.9 291 630.6 249.2 630.6 249.2C632.1 248.4 632.6 246.6 631.8 245.1 631 243.6 629.2 243.1 627.7 243.9L619 248.6 616.1 239.3C615.9 238.5 615.3 237.9 614.6 237.5L604.3 232.3C604.1 232.2 603.9 232.1 603.7 232.1L591.5 229.2C590.1 228.9 588.7 229.5 588.1 230.8L581.8 243.7 547.5 258 548.3 259.8 581.6 245.8C581.8 246.6 582.4 247.2 583.1 247.6 584.6 248.3 586.4 247.7 587.1 246.2L592.3 235.4 599.5 237.1 588.5 254.7C588.5 254.7 588.5 254.7 588.5 254.7 588.4 254.9 588.3 255 588.2 255.2L582.1 269.2 570.9 277.6C569.3 278.8 568.9 281.1 569.9 282.8L558.5 282.8C557.4 282.8 556.5 283.7 556.5 284.8 556.5 285.9 557.4 286.8 558.5 286.8L597.6 286.8C597.2 288.3 597.7 289.8 598.8 290.8L575.5 290.8C574.4 290.8 573.5 291.7 573.5 292.8 573.5 293.9 574.4 294.8 575.5 294.8L629.5 294.8C629.9 294.8 630.2 294.7 630.5 294.5L635.5 291.5C636.4 291.1 636.7 289.9 636.2 289ZM587.9 275.2C588.5 274.8 588.9 274.2 589.2 273.6L593.4 263.9 602 272.2 598.8 283 577.5 283 587.9 275.2ZM605.3 289.1 605.9 287 612.4 287C612.8 287 613.1 286.9 613.4 286.7L618.4 283.7C619.3 283.1 619.7 281.9 619.1 281 618.5 280.1 617.3 279.7 616.4 280.3L611.9 283 607.1 283 610.3 272.1C610.7 270.7 610.3 269.1 609.2 268.1L599.2 258.5 611.4 244.7 614.3 253.9C614.6 254.8 615.2 255.5 616 255.8 616.4 255.9 616.7 256 617.1 256 617.6 256 618.1 255.9 618.5 255.6L628.3 250.3 621.9 291 604.1 291C604.6 290.5 605.1 289.9 605.3 289.1Z" fill="#FFFFFF"/></g></svg>