<svg width="96" height="96" xmlns="http://www.w3.org/2000/svg" xmlns:xlink="http://www.w3.org/1999/xlink" xml:space="preserve" overflow="hidden"><g transform="translate(-863 -202)"><path d="M930 217.5C930 221.918 926.418 225.5 922 225.5 917.582 225.5 914 221.918 914 217.5 914 213.082 917.582 209.5 922 209.5 926.418 209.5 930 213.082 930 217.5Z" fill="#FFFFFF"/><path d="M886 256.5C876.6 256.5 869 264.1 869 273.5 869 282.9 876.6 290.5 886 290.5 895.4 290.5 903 282.9 903 273.5 903 264.1 895.4 256.5 886 256.5ZM886 286.5C878.8 286.5 873 280.7 873 273.5 873 266.3 878.8 260.5 886 260.5 893.2 260.5 899 266.3 899 273.5 899 280.7 893.2 286.5 886 286.5Z" fill="#FFFFFF"/><path d="M936 256.5C926.6 256.5 919 264.1 919 273.5 919 282.9 926.6 290.5 936 290.5 945.4 290.5 953 282.9 953 273.5 953 264.1 945.4 256.5 936 256.5ZM936 286.5C928.8 286.5 923 280.7 923 273.5 923 266.3 928.8 260.5 936 260.5 943.2 260.5 949 266.3 949 273.5 949 280.7 943.2 286.5 936 286.5Z" fill="#FFFFFF"/><path d="M918.7 241.8C919.5 242.6 920.5 243 921.5 243L933 243C935.2 243 937 241.2 937 239 937 236.8 935.2 235 933 235L923.2 235C923.2 235 911.8 223.5 911.6 223.4 909.1 221.2 905.3 221.5 903.1 224L889.5 239.5C887.3 242 887.6 245.8 890 248 890.6 248.5 891.2 248.9 891.9 249.1L891.9 249.1 906.9 255.1 906.9 273.4C906.9 275.6 908.7 277.4 910.9 277.4 913.1 277.4 914.9 275.6 914.9 273.4L914.9 252.4C914.9 250.8 913.9 249.3 912.5 248.7L901.4 244 910.5 233.6 918.7 241.8Z" fill="#FFFFFF"/></g></svg>