<svg width="96" height="96" xmlns="http://www.w3.org/2000/svg" xmlns:xlink="http://www.w3.org/1999/xlink" xml:space="preserve" overflow="hidden"><g transform="translate(-352 -75)"><path d="M440.005 84 360.005 84 360.005 92 365.005 92 365.005 162.045 380.96 162.045 380.96 159 419.05 159 419.05 162.045 435.005 162.045 435.005 92 440.005 92ZM397.005 123 383.829 123C388.455 115.082 390.929 106.091 391.005 96.921L391.005 92 397.005 92ZM403.005 92 409.005 92 409.005 96.921C409.081 106.091 411.555 115.082 416.181 123L403.005 123ZM374.172 134.5C376.18 132.854 378.018 131.011 379.66 129L397.005 129 397.005 151 380.337 151C379.295 145.173 377.207 139.583 374.172 134.5ZM403.005 129 420.35 129C421.992 131.011 423.83 132.854 425.838 134.5 422.804 139.583 420.715 145.173 419.673 151L403.005 151Z" fill="#FFFFFF"/></g></svg>