<svg width="96" height="96" xmlns="http://www.w3.org/2000/svg" xmlns:xlink="http://www.w3.org/1999/xlink" xml:space="preserve" overflow="hidden"><g transform="translate(-568 -299)"><path d="M616 324C603.3 324 591.8 329.2 583.5 337.5L589.2 343.2C596 336.3 605.5 332 616 332 626.5 332 636 336.3 642.9 343.1L648.6 337.4C640.1 329.2 628.7 324 616 324Z" fill="#FFFFFF"/><path d="M592 346 597.7 351.7C602.2 346.9 608.8 344 616 344 623.2 344 629.7 346.9 634.4 351.6L640 346C633.8 339.8 625.3 336 616 336 606.7 336 598.1 339.8 592 346Z" fill="#FFFFFF"/><path d="M600.5 354.5 606.2 360.2C608.7 357.7 612.2 356.1 616.1 356.1 620 356.1 623.5 357.7 626 360.2L631.7 354.5C627.7 350.5 622.2 348 616.2 348 610.2 348 604.4 350.5 600.5 354.5Z" fill="#FFFFFF"/><path d="M608.9 362.9 616 370 623.1 362.9C621.2 361.1 618.8 360 616 360 613.2 360 610.7 361.1 608.9 362.9Z" fill="#FFFFFF"/></g></svg>