<svg width="65" height="65" xmlns="http://www.w3.org/2000/svg" xmlns:xlink="http://www.w3.org/1999/xlink" xml:space="preserve" overflow="hidden"><g transform="translate(-258 -192)"><path d="M314.198 210.302C313.677 203.531 308.888 198.379 303.5 198.792 298.112 199.204 294.176 205.034 294.698 211.805 295.22 218.576 300.008 223.727 305.396 223.315 310.783 222.903 314.722 217.073 314.198 210.302ZM307.795 219.693C307.018 220.218 306.119 220.534 305.185 220.612 305.097 220.619 305.008 220.62 304.92 220.622 305.642 217.38 304.35 214.386 302.992 211.249 301.791 208.48 300.572 205.647 300.792 202.654 301.632 201.991 302.647 201.588 303.713 201.494L303.745 201.494C302.939 204.318 304.133 207.075 305.476 210.174 306.725 213.053 308.083 216.212 307.795 219.693Z" fill="#FFFFFF"/><path d="M305.762 232.698C301.042 227.818 294.067 226.904 290.184 230.661 286.301 234.419 286.981 241.418 291.702 246.302 296.423 251.186 303.397 252.091 307.28 248.333 311.163 244.576 310.483 237.579 305.762 232.698ZM305.396 246.389C305.328 246.452 305.26 246.502 305.193 246.56 303.68 243.607 300.778 242.127 297.733 240.579 295.041 239.212 292.295 237.808 290.556 235.366 290.78 234.32 291.305 233.361 292.065 232.609 292.073 232.601 292.082 232.596 292.09 232.588 293.27 235.277 295.949 236.637 298.959 238.168 301.754 239.589 304.809 241.147 306.809 244.005 306.553 244.909 306.066 245.731 305.396 246.389Z" fill="#FFFFFF"/><path d="M283.34 210.251C278.793 207.335 272.135 209.604 268.469 215.319 264.803 221.035 265.516 228.033 270.062 230.95 274.609 233.867 281.267 231.597 284.934 225.881 288.601 220.165 287.886 213.168 283.34 210.251ZM278.051 220.518C277.312 223.561 276.494 226.891 274.178 229.491 273.237 229.455 272.322 229.171 271.525 228.67 271.45 228.622 271.384 228.565 271.312 228.514 273.839 226.363 274.614 223.198 275.42 219.878 276.133 216.942 276.869 213.944 278.853 211.686L278.882 211.686C279.941 211.67 280.982 211.963 281.877 212.529 281.886 212.535 281.894 212.543 281.903 212.548 279.558 214.317 278.849 217.236 278.051 220.518Z" fill="#FFFFFF"/></g></svg>