<svg width="96" height="96" xmlns="http://www.w3.org/2000/svg" xmlns:xlink="http://www.w3.org/1999/xlink" xml:space="preserve" overflow="hidden"><g transform="translate(-882 -382)"><path d="M895 405 895 454 911.074 454 911.074 434.926C911.074 424.474 919.547 416 930 416 940.453 416 948.926 424.474 948.926 434.926L948.926 454 965 454 965 405Z" fill="#FFFFFF"/><path d="M892 458 968 458C969.105 458 970 458.895 970 460L970 468 970 468 890 468 890 468 890 460C890 458.895 890.895 458 892 458Z" fill="#FFFFFF"/><path d="M965 401 895 401 890 396 890 392 970 392 970 396 965 401Z" fill="#FFFFFF"/><path d="M923.2 445C922.526 441.828 923.549 438.534 925.9 436.3 925.9 436.3 924.774 440.7 927.24 443.7 927.579 444.116 927.894 444.55 928.185 445L937.6 445C938.092 444.35 938.501 443.641 938.817 442.889 939.888 440.589 939.996 436.989 938.441 434.902 938.838 436.702 937.701 438.483 935.902 438.88 934.102 439.277 932.321 438.14 931.924 436.341 931.704 435.343 931.953 434.299 932.6 433.508 935.869 429.167 933.457 422.359 928.044 420 930.51 424.664 926.758 428.9 924.561 430.721 922.898 431.987 921.528 433.596 920.542 435.438 919.274 438.619 919.724 442.228 921.735 445Z" fill="#FFFFFF"/><path d="M918 454C916.343 454 915 452.657 915 451 915 449.343 916.343 448 918 448L942 448C943.657 448 945 449.343 945 451 945 452.657 943.657 454 942 454Z" fill="#FFFFFF"/></g></svg>