<svg width="96" height="96" xmlns="http://www.w3.org/2000/svg" xmlns:xlink="http://www.w3.org/1999/xlink" xml:space="preserve" overflow="hidden"><g transform="translate(-744 -366)"><path d="M752 383 752 445 832 445 832 383ZM821 389C822.105 389 823 389.895 823 391 823 392.105 822.105 393 821 393 819.895 393 819 392.105 819 391 819 389.895 819.895 389 821 389ZM814 389C815.105 389 816 389.895 816 391 816 392.105 815.105 393 814 393 812.895 393 812 392.105 812 391 812 389.895 812.895 389 814 389ZM807 389C808.105 389 809 389.895 809 391 809 392.105 808.105 393 807 393 805.895 393 805 392.105 805 391 805 389.895 805.895 389 807 389ZM826 439 758 439 758 399 826 399Z" fill="#FFFFFF"/></g></svg>