<svg width="96" height="96" xmlns="http://www.w3.org/2000/svg" xmlns:xlink="http://www.w3.org/1999/xlink" xml:space="preserve" overflow="hidden"><g transform="translate(-432 -138)"><path d="M513.006 151 513.006 145 447.006 145 447.006 149 447.006 149 447.006 170 447.006 170 447.006 227 513.006 227 513.006 163 513.006 163 513.006 151ZM480.006 213C469.236 213 460.506 204.27 460.506 193.5 460.506 182.73 469.236 174 480.006 174 490.776 174 499.506 182.73 499.506 193.5 499.506 204.27 490.776 213 480.006 213ZM507.006 163 453.006 163 453.006 151 507.006 151Z" fill="#FFFFFF"/><path d="M459.005 154 471.005 154 471.005 160 459.005 160Z" fill="#FFFFFF"/><path d="M480.006 178C471.446 178 464.506 184.94 464.506 193.5 464.506 202.06 471.446 209 480.006 209 488.566 209 495.506 202.06 495.506 193.5 495.497 184.943 488.562 178.009 480.006 178ZM491.485 193.922C490.294 195.114 488.362 195.114 487.17 193.923 487.113 193.866 487.058 193.806 487.006 193.745 485.911 192.456 483.979 192.299 482.69 193.394 482.564 193.501 482.446 193.619 482.339 193.745 481.245 195.034 479.313 195.191 478.024 194.096 477.898 193.989 477.78 193.871 477.673 193.745 476.578 192.456 474.646 192.299 473.357 193.394 473.231 193.501 473.113 193.619 473.006 193.745 471.913 195.027 469.987 195.18 468.705 194.086 468.643 194.034 468.584 193.979 468.527 193.922 468.522 193.781 468.506 193.643 468.506 193.5 468.506 187.149 473.655 182 480.006 182 486.357 182 491.506 187.149 491.506 193.5 491.506 193.643 491.49 193.781 491.485 193.922Z" fill="#FFFFFF"/><path d="M485.005 157C485.005 158.657 483.662 160 482.005 160 480.348 160 479.005 158.657 479.005 157 479.005 155.343 480.348 154 482.005 154 483.662 154 485.005 155.343 485.005 157Z" fill="#FFFFFF"/><path d="M494.005 157C494.005 158.657 492.662 160 491.005 160 489.348 160 488.005 158.657 488.005 157 488.005 155.343 489.348 154 491.005 154 492.662 154 494.005 155.343 494.005 157Z" fill="#FFFFFF"/><path d="M503.005 157C503.005 158.657 501.662 160 500.005 160 498.348 160 497.005 158.657 497.005 157 497.005 155.343 498.348 154 500.005 154 501.662 154 503.005 155.343 503.005 157Z" fill="#FFFFFF"/></g></svg>