<svg width="73" height="73" xmlns="http://www.w3.org/2000/svg" xmlns:xlink="http://www.w3.org/1999/xlink" xml:space="preserve" overflow="hidden"><g transform="translate(-247 -270)"><path d="M297.188 292.812 303.271 292.812 303.271 298.896 297.188 298.896Z" fill="#FFFFFF"/><path d="M310.875 291.292C309.202 291.292 307.833 292.66 307.833 294.333L307.833 303.458 259.167 303.458 259.167 294.333C259.167 292.66 257.798 291.292 256.125 291.292 254.452 291.292 253.083 292.66 253.083 294.333L253.083 330.833C253.083 332.506 254.452 333.875 256.125 333.875 257.798 333.875 259.167 332.506 259.167 330.833L259.167 327.564C266.543 326.271 274.907 325.51 283.5 325.51 292.169 325.51 300.457 326.195 307.833 327.564L307.833 330.833C307.833 332.506 309.202 333.875 310.875 333.875 312.548 333.875 313.917 332.506 313.917 330.833L313.917 294.333C313.917 292.66 312.548 291.292 310.875 291.292ZM276.656 308.021 281.219 308.021 281.219 320.948C279.698 320.948 278.177 321.024 276.656 321.1L276.656 308.021ZM272.094 321.328C270.573 321.404 269.052 321.556 267.531 321.708L267.531 308.021 272.094 308.021 272.094 321.328ZM285.781 308.021 290.344 308.021 290.344 321.1C288.823 321.024 287.302 321.024 285.781 320.948L285.781 308.021ZM294.906 308.021 299.469 308.021 299.469 321.784C297.948 321.632 296.427 321.48 294.906 321.404L294.906 308.021ZM259.167 308.021 262.969 308.021 262.969 322.317C261.676 322.469 260.383 322.697 259.167 322.925L259.167 308.021ZM304.031 322.317 304.031 308.021 307.833 308.021 307.833 322.925C306.617 322.697 305.324 322.469 304.031 322.317Z" fill="#FFFFFF"/><path d="M286.694 300.417 294.146 300.417 290.42 294.333Z" fill="#FFFFFF"/><path d="M280.458 291.14C280.686 291.216 280.915 291.292 281.067 291.292 281.675 291.292 282.207 290.987 282.435 290.379 283.5 288.098 285.933 286.501 288.747 286.045L288.747 291.292C288.747 292.128 289.431 292.812 290.268 292.812 291.104 292.812 291.789 292.128 291.789 291.292L291.789 286.121C294.602 286.577 296.959 288.098 298.024 290.303 298.404 291.064 299.317 291.368 300.077 290.987 300.837 290.607 301.142 289.695 300.761 288.934 299.165 285.741 295.743 283.459 291.789 283.003L291.789 282.167 298.632 282.167C302.967 282.167 307.073 284.904 308.67 288.782 308.974 289.543 309.886 289.923 310.647 289.619 311.407 289.315 311.788 288.402 311.483 287.642 309.506 282.623 304.259 279.125 298.708 279.125L288.823 279.125 288.823 283.003C284.793 283.459 281.295 285.741 279.774 289.086 279.394 289.923 279.698 290.835 280.458 291.14Z" fill="#FFFFFF"/><path d="M283.5 296.234C283.5 298.124 281.968 299.656 280.078 299.656 278.188 299.656 276.656 298.124 276.656 296.234 276.656 294.345 278.188 292.812 280.078 292.812 281.968 292.812 283.5 294.345 283.5 296.234Z" fill="#FFFFFF"/></g></svg>