<svg width="71" height="71" xmlns="http://www.w3.org/2000/svg" xmlns:xlink="http://www.w3.org/1999/xlink" xml:space="preserve" overflow="hidden"><g><path d="M54.6552 36.4615C55.9865 41.8604 50.4396 47.1854 44.9667 44.9667 40.3812 43.3396 38.6063 38.0146 41.7865 33.4292 48.9604 23.8885 43.7094 8.875 31.8021 3.69792 37.201 13.9042 28.9177 23.2969 24.1844 27.2167 19.451 31.1365 16.2708 35.2042 15.3094 37.5708 10.5021 49.2562 17.676 60.424 22.5573 63.0865 20.3385 58.0573 18.2677 48.4427 26.9948 39.4198 26.9948 39.4198 24.4802 49.0344 29.9531 55.6906 35.426 62.3469 35.3521 67.3021 35.3521 67.3021 43.8573 67.3021 51.9187 62.199 55.3208 53.8417 57.9094 48.8865 58.1312 41.0469 54.6552 36.4615" fill="#FFFFFF"/></g></svg>