<svg width="70" height="70" xmlns="http://www.w3.org/2000/svg" xmlns:xlink="http://www.w3.org/1999/xlink" xml:space="preserve" overflow="hidden"><g><path d="M55.9271 45.4271 52.6458 43.5312 55.1979 42.875C56 42.6562 56.4375 41.8542 56.2188 41.125 56 40.3958 55.1979 39.8854 54.4688 40.1042L49.0729 41.5625 46.9583 40.3229 53.5208 38.5729C54.3229 38.3542 54.7604 37.5521 54.5417 36.8229 54.3229 36.0938 53.5208 35.5833 52.7917 35.8021L43.3854 38.2812 40.6146 36.6771C40.7604 36.1667 40.8333 35.6563 40.8333 35.1458 40.8333 34.6354 40.7604 34.0521 40.6146 33.6146L43.3854 32.0104 52.7917 34.4896C52.9375 34.4896 53.0104 34.5625 53.1563 34.5625 53.8125 34.5625 54.3958 34.125 54.5417 33.4688 54.7604 32.6667 54.3229 31.8646 53.5208 31.7188L46.9583 29.9688 49.0729 28.7292 54.4688 30.1875C54.6146 30.1875 54.6875 30.2604 54.8333 30.2604 55.4896 30.2604 56.0729 29.8229 56.2188 29.1667 56.4375 28.3646 56 27.5625 55.1979 27.4167L52.6458 26.7604 55.9271 24.8646C56.6562 24.4271 56.875 23.5521 56.4375 22.8958 56 22.1667 55.125 21.9479 54.4688 22.3854L51.1875 24.2812 51.8438 21.7292C52.0625 20.9271 51.625 20.125 50.8229 19.9792 50.0208 19.7604 49.2188 20.1979 49.0729 21L47.6146 26.3958 45.5 27.6354 47.25 21.0729C47.4688 20.2708 47.0312 19.4688 46.2292 19.3229 45.4271 19.1042 44.625 19.5417 44.4792 20.3438L42 29.75 39.2292 31.3542C38.5 30.625 37.5521 30.0417 36.5312 29.8229L36.5312 26.6146 43.3854 19.7604C43.9688 19.1771 43.9688 18.3021 43.3854 17.7188 42.8021 17.1354 41.9271 17.1354 41.3438 17.7188L36.4583 22.0208 36.4583 19.6146 40.3958 15.6771C40.9792 15.0938 40.9792 14.2188 40.3958 13.6354 39.8125 13.0521 38.9375 13.0521 38.3542 13.6354L36.4583 15.4583 36.4583 11.6667C36.4583 10.8646 35.8021 10.2083 35 10.2083 34.1979 10.2083 33.5417 10.8646 33.5417 11.6667L33.5417 15.4583 31.6458 13.5625C31.0625 12.9792 30.1875 12.9792 29.6042 13.5625 29.0208 14.1458 29.0208 15.0208 29.6042 15.6042L33.5417 19.5417 33.5417 21.9479 28.7292 17.1354C28.1458 16.5521 27.2708 16.5521 26.6875 17.1354 26.1042 17.7188 26.1042 18.5938 26.6875 19.1771L33.5417 26.0313 33.5417 29.2396C32.5208 29.5312 31.5729 30.0417 30.8438 30.7708L28.0729 29.1667 25.5208 19.9062C25.3021 19.1042 24.5 18.6667 23.7708 18.8854 22.9688 19.1042 22.5312 19.9062 22.75 20.6354L24.5 27.1979 22.3854 25.9583 20.9271 20.5625C20.7083 19.7604 19.9062 19.3229 19.1771 19.5417 18.375 19.7604 17.9375 20.5625 18.1562 21.2917L18.8125 23.8438 15.5312 21.9479C14.8021 21.5104 13.9271 21.8021 13.5625 22.4583 13.125 23.1875 13.4167 24.0625 14.0729 24.4271L17.3542 26.3229 14.8021 26.9792C14 27.1979 13.5625 28 13.7812 28.7292 13.9271 29.3854 14.5104 29.8229 15.1667 29.8229 15.3125 29.8229 15.3854 29.8229 15.5312 29.75L20.9271 28.2917 23.0417 29.5312 16.4792 31.2813C15.6771 31.5 15.2396 32.3021 15.4583 33.0312 15.6042 33.6875 16.1875 34.125 16.8438 34.125 16.9896 34.125 17.0625 34.125 17.2083 34.0521L26.6146 31.5729 29.3854 33.1771C29.2396 33.9062 29.1667 34.4896 29.1667 35 29.1667 35.5104 29.2396 36.0938 29.3854 36.5312L26.6146 38.1354 17.2083 35.6563C16.4062 35.4375 15.6042 35.875 15.4583 36.6771 15.3125 37.4792 15.6771 38.2812 16.4792 38.4271L23.0417 40.1771 20.9271 41.4167 15.5312 39.9583C14.7292 39.7396 13.9271 40.1771 13.7812 40.9792 13.6354 41.7812 14 42.5833 14.8021 42.7292L17.3542 43.3854 14.0729 45.2812C13.3438 45.7188 13.125 46.5938 13.5625 47.25 13.8542 47.6875 14.2917 47.9792 14.8021 47.9792 15.0208 47.9792 15.3125 47.9062 15.5312 47.7604L18.8125 45.8646 18.1562 48.4167C17.9375 49.2188 18.375 50.0208 19.1771 50.1667 19.3229 50.1667 19.3958 50.2396 19.5417 50.2396 20.1979 50.2396 20.7812 49.8021 20.9271 49.1458L22.3854 43.75 24.5 42.5104 22.75 49.0729C22.5312 49.875 22.9688 50.6771 23.7708 50.8229 23.9167 50.8229 23.9896 50.8958 24.1354 50.8958 24.7917 50.8958 25.375 50.4583 25.5208 49.8021L28 40.3958 30.7708 38.7917C31.5 39.5208 32.4479 40.1042 33.4688 40.3229L33.4688 43.5312 26.6146 50.3854C26.0313 50.9688 26.0313 51.8438 26.6146 52.4271 27.1979 53.0104 28.0729 53.0104 28.6562 52.4271L33.4688 47.6146 33.4688 50.0208 29.5312 53.9583C28.9479 54.5417 28.9479 55.4167 29.5312 56 30.1146 56.5833 30.9896 56.5833 31.5729 56L33.4688 54.1042 33.4688 58.3333C33.4688 59.1354 34.125 59.7917 34.9271 59.7917 35.7292 59.7917 36.3854 59.1354 36.3854 58.3333L36.3854 54.5417 38.2812 56.4375C38.6458 56.7292 39.0104 56.875 39.375 56.875 39.7396 56.875 40.1042 56.7292 40.3958 56.4375 40.9792 55.8542 40.9792 54.9792 40.3958 54.3958L36.4583 50.4583 36.4583 48.0521 41.2708 52.8646C41.5625 53.0833 41.9271 53.2292 42.2917 53.2292 42.6562 53.2292 43.0208 53.0833 43.3125 52.7917 43.8958 52.2083 43.8958 51.3333 43.3125 50.75L36.4583 43.8958 36.4583 40.6875C37.4792 40.3958 38.4271 39.8854 39.1562 39.1562L41.9271 40.7604 44.4792 50.0938C44.625 50.75 45.2083 51.1875 45.8646 51.1875 46.0104 51.1875 46.0833 51.1875 46.2292 51.1146 47.0312 50.8958 47.4688 50.0938 47.25 49.3646L45.5 42.8021 47.6146 44.0417 49.0729 49.4375C49.2188 50.0938 49.8021 50.5313 50.4583 50.5313 50.6042 50.5313 50.6771 50.5313 50.8229 50.4583 51.625 50.2396 52.0625 49.4375 51.8438 48.7083L51.1875 46.1562 54.4688 48.0521C54.6875 48.1979 54.9792 48.2708 55.1979 48.2708 55.7083 48.2708 56.2188 47.9792 56.4375 47.5417 56.875 46.6667 56.6562 45.7917 55.9271 45.4271Z" fill="#FFFFFF"/></g></svg>