<svg width="96" height="96" xmlns="http://www.w3.org/2000/svg" xmlns:xlink="http://www.w3.org/1999/xlink" xml:space="preserve" overflow="hidden"><g transform="translate(-664 -292)"><path d="M740 324 740 332 732 332 732 324 740 324ZM684 360 692 360 692 368 684 368 684 360ZM704 324 704 332 696 332 696 324 704 324ZM716 324 716 332 708 332 708 324 716 324ZM728 344 720 344 720 336 728 336 728 344ZM732 344 732 336 740 336 740 344 732 344ZM732 356 732 348 740 348 740 356 732 356ZM708 360 716 360 716 368 708 368 708 360ZM704 360 704 368 696 368 696 360 704 360ZM696 348 704 348 704 356 696 356 696 348ZM692 348 692 356 684 356 684 348 692 348ZM692 336 692 344 684 344 684 336 692 336ZM704 344 696 344 696 336 704 336 704 344ZM708 344 708 336 716 336 716 344 708 344ZM716 356 708 356 708 348 716 348 716 356ZM720 356 720 348 728 348 728 356 720 356ZM728 324 728 332 720 332 720 324 728 324ZM678 318 678 374 746 374 746 318 678 318Z" fill="#FFFFFF"/><path d="M678 306 746 306 746 314 678 314Z" fill="#FFFFFF"/></g></svg>