<svg width="96" height="96" xmlns="http://www.w3.org/2000/svg" xmlns:xlink="http://www.w3.org/1999/xlink" xml:space="preserve" overflow="hidden"><g transform="translate(-472 -284)"><path d="M554 367.6 534 348.6 554 329.6 554 367.6ZM489.2 370 509 351.3 510.4 350C515.8 344.9 524.3 344.9 529.7 350L531.1 351.3 550.8 370 489.2 370ZM486 329.5 506 348.5 486 367.5 486 329.5ZM500 304 540 304 540 337.3 531 345.9C524.5 340.9 515.5 340.9 509 345.9L500 337.3 500 304ZM546 306.7 546 298 532 298 520 288 508 298 494 298 494 306.8 480 320.1 480 376 560 376 560 320.1 546 306.7Z" fill="#FFFFFF"/><path d="M520 326.3C518.2 326.3 516.8 324.8 516.8 323.1 516.8 321.3 518.3 319.9 520 319.9 521.8 319.9 523.2 321.3 523.2 323.1 523.2 324.9 521.8 326.3 520 326.3ZM520 336C522.3 336 524.5 335.4 526.5 334.4 527.3 333.9 527.6 332.9 527.2 332.1 526.7 331.3 525.7 331 524.9 331.4 523.4 332.2 521.7 332.6 520 332.6 514.7 332.6 510.3 328.2 510.4 322.9 510.4 317.6 514.8 313.2 520.1 313.2 525.4 313.2 529.8 317.5 529.8 322.9L529.8 326.1C528 326.1 526.6 324.7 526.6 322.9 526.6 319.7 524.4 317 521.3 316.4 518.2 315.8 515.1 317.5 514 320.4 512.9 323.3 514 326.7 516.7 328.3 519.4 329.9 522.9 329.4 525 327 526.2 328.4 528 329.2 529.9 329.2 531.7 329.2 533.1 327.8 533.1 326L533.1 322.8C533.1 315.6 527.3 309.8 520.1 309.8 512.9 309.8 507.1 315.6 507.1 322.8 507 330.1 512.8 335.9 520 336Z" fill="#FFFFFF"/></g></svg>